HIERARCHY
ROOT hips
{
  OFFSET 0 11.86390953 0.3628582958
  CHANNELS 6 Xposition Yposition Zposition Yrotation Xrotation Zrotation
  JOINT spine
  {
    OFFSET 0 0.05383551117999996 0
    CHANNELS 3 Yrotation Xrotation Zrotation
    JOINT chest
    {
      OFFSET 0 0.6394558760401424 0
      CHANNELS 3 Yrotation Xrotation Zrotation
      JOINT neck
      {
        OFFSET 0 2.720089088562982 0
        CHANNELS 3 Yrotation Xrotation Zrotation
        JOINT head
        {
          OFFSET 0 0.37880844870545777 0
          CHANNELS 3 Yrotation Xrotation Zrotation
          JOINT rightEye
          {
            OFFSET -0.42867780714 0.7547055649100001 0.7381831347
            CHANNELS 3 Yrotation Xrotation Zrotation
            End Site
            {
              OFFSET -0.42867780714 0.7547055649100001 0.7381831347
            }
          }
          JOINT leftEye
          {
            OFFSET 0.428676479 0.7547055559999993 0.7381844503
            CHANNELS 3 Yrotation Xrotation Zrotation
            End Site
            {
              OFFSET 0.428676479 0.7547055559999993 0.7381844503
            }
          }
          JOINT jaw
          {
            OFFSET -0.18933892286100001 1.5626303011000007 1.137441874206
            CHANNELS 3 Yrotation Xrotation Zrotation
            End Site
            {
              OFFSET -0.18933892286100001 1.5626303011000007 1.137441874206
            }
          }
        }
      }
      JOINT rightShoulder
      {
        OFFSET -0.6795351508 2.0665205 0
        CHANNELS 3 Yrotation Xrotation Zrotation
        JOINT rightUpperArm
        {
          OFFSET -0.7287400483531672 0 0
          CHANNELS 3 Yrotation Xrotation Zrotation
          JOINT rightLowerArm
          {
            OFFSET -1.9872982039174532 0 0
            CHANNELS 3 Yrotation Xrotation Zrotation
            JOINT rightHand
            {
              OFFSET -2.6451847532219275 0 0
              CHANNELS 3 Yrotation Xrotation Zrotation
              JOINT rightLittleProximal
              {
                OFFSET -0.8008804099999995 -0.09592044000000044 -0.26183688629999996
                CHANNELS 3 Yrotation Xrotation Zrotation
                JOINT rightLittleIntermediate
                {
                  OFFSET -0.2473955153999997 -0.02541697026000067 0.002370178700999967
                  CHANNELS 3 Yrotation Xrotation Zrotation
                  JOINT rightLittleDistal
                  {
                    OFFSET -0.163687229200001 -0.015790700860001117 -0.0004274845300000635
                    CHANNELS 3 Yrotation Xrotation Zrotation
                    End Site
                    {
                      OFFSET -0.163687229200001 -0.015790700860001117 -0.0004274845300000635
                    }
                  }
                }
              }
              JOINT rightRingProximal
              {
                OFFSET -0.8393382799999985 -0.06223833561000025 -0.09213143500000005
                CHANNELS 3 Yrotation Xrotation Zrotation
                JOINT rightRingIntermediate
                {
                  OFFSET -0.3284497260000011 -0.03264224524000103 0.009408593183000052
                  CHANNELS 3 Yrotation Xrotation Zrotation
                  JOINT rightRingDistal
                  {
                    OFFSET -0.19447660429999902 -0.021730899850000318 0.003074347969000052
                    CHANNELS 3 Yrotation Xrotation Zrotation
                    End Site
                    {
                      OFFSET -0.19447660429999902 -0.021730899850000318 0.003074347969000052
                    }
                  }
                }
              }
              JOINT rightMiddleProximal
              {
                OFFSET -0.8473005199999989 -0.06735503500000095 0.10541820299999995
                CHANNELS 3 Yrotation Xrotation Zrotation
                JOINT rightMiddleIntermediate
                {
                  OFFSET -0.3450455799999995 -0.02481901642000084 0.019012570390000032
                  CHANNELS 3 Yrotation Xrotation Zrotation
                  JOINT rightMiddleDistal
                  {
                    OFFSET -0.23542332000000088 -0.025003910029999243 0.0075583457949999905
                    CHANNELS 3 Yrotation Xrotation Zrotation
                    End Site
                    {
                      OFFSET -0.23542332000000088 -0.025003910029999243 0.0075583457949999905
                    }
                  }
                }
              }
              JOINT rightIndexProximal
              {
                OFFSET -0.8008568281999987 -0.09897839600000169 0.29462796
                CHANNELS 3 Yrotation Xrotation Zrotation
                JOINT rightIndexIntermediate
                {
                  OFFSET -0.30524754480000016 -0.024634122809999992 0.02743375304999998
                  CHANNELS 3 Yrotation Xrotation Zrotation
                  JOINT rightIndexDistal
                  {
                    OFFSET -0.23067378950000017 -0.016876459159999913 0.008484125099999983
                    CHANNELS 3 Yrotation Xrotation Zrotation
                    End Site
                    {
                      OFFSET -0.23067378950000017 -0.016876459159999913 0.008484125099999983
                    }
                  }
                }
              }
              JOINT rightThumbProximal
              {
                OFFSET -0.25574064999999935 -0.12833189930000155 0.22385698609999993
                CHANNELS 3 Yrotation Xrotation Zrotation
                JOINT rightThumbIntermediate
                {
                  OFFSET -0.22791743260000086 -0.07103586192999978 0.27385039
                  CHANNELS 3 Yrotation Xrotation Zrotation
                  JOINT rightThumbDistal
                  {
                    OFFSET -0.13610267659999975 -0.03369390969999997 0.14246511509999996
                    CHANNELS 3 Yrotation Xrotation Zrotation
                    End Site
                    {
                      OFFSET -0.13610267659999975 -0.03369390969999997 0.14246511509999996
                    }
                  }
                }
              }
            }
          }
        }
      }
      JOINT leftShoulder
      {
        OFFSET 0.6795338396 2.0665205 0
        CHANNELS 3 Yrotation Xrotation Zrotation
        JOINT leftUpperArm
        {
          OFFSET 0.7287383950230443 0 0
          CHANNELS 3 Yrotation Xrotation Zrotation
          JOINT leftLowerArm
          {
            OFFSET 1.9872997282019604 0 0
            CHANNELS 3 Yrotation Xrotation Zrotation
            JOINT leftHand
            {
              OFFSET 2.6451820781302327 0 0
              CHANNELS 3 Yrotation Xrotation Zrotation
              JOINT leftLittleProximal
              {
                OFFSET 0.8008804099999995 -0.09592306899999814 -0.2618342639000001
                CHANNELS 3 Yrotation Xrotation Zrotation
                JOINT leftLittleIntermediate
                {
                  OFFSET 0.2473981400000007 -0.02542352681000093 0.0023609995859999455
                  CHANNELS 3 Yrotation Xrotation Zrotation
                  JOINT leftLittleDistal
                  {
                    OFFSET 0.1636846068000002 -0.015794634789999318 -0.00043272972159996703
                    CHANNELS 3 Yrotation Xrotation Zrotation
                    End Site
                    {
                      OFFSET 0.1636846068000002 -0.015794634789999318 -0.00043272972159996703
                    }
                  }
                }
              }
              JOINT leftRingProximal
              {
                OFFSET 0.8393409199999996 -0.062242267999998324 -0.0921281570000001
                CHANNELS 3 Yrotation Xrotation Zrotation
                JOINT leftRingIntermediate
                {
                  OFFSET 0.3284471036000003 -0.03264224524000103 0.009405970574000042
                  CHANNELS 3 Yrotation Xrotation Zrotation
                  JOINT leftRingDistal
                  {
                    OFFSET 0.1944779099999996 -0.021732211159998904 0.003073036670000001
                    CHANNELS 3 Yrotation Xrotation Zrotation
                    End Site
                    {
                      OFFSET 0.1944779099999996 -0.021732211159998904 0.003073036670000001
                    }
                  }
                }
              }
              JOINT leftMiddleProximal
              {
                OFFSET 0.8473005200000001 -0.06736028199999788 0.1054214809999999
                CHANNELS 3 Yrotation Xrotation Zrotation
                JOINT leftMiddleIntermediate
                {
                  OFFSET 0.3450455799999995 -0.024824261000000014 0.019013225990000007
                  CHANNELS 3 Yrotation Xrotation Zrotation
                  JOINT leftMiddleDistal
                  {
                    OFFSET 0.2354259489999998 -0.025005222000000327 0.0075590014499999705
                    CHANNELS 3 Yrotation Xrotation Zrotation
                    End Site
                    {
                      OFFSET 0.2354259489999998 -0.025005222000000327 0.0075590014499999705
                    }
                  }
                }
              }
              JOINT leftIndexProximal
              {
                OFFSET 0.8008594516999996 -0.09898495199999946 0.29463124239999994
                CHANNELS 3 Yrotation Xrotation Zrotation
                JOINT leftIndexIntermediate
                {
                  OFFSET 0.30524754480000016 -0.024632811499998963 0.02743047472
                  CHANNELS 3 Yrotation Xrotation Zrotation
                  JOINT leftIndexDistal
                  {
                    OFFSET 0.23067378950000017 -0.016876459159999913 0.008481502700000004
                    CHANNELS 3 Yrotation Xrotation Zrotation
                    End Site
                    {
                      OFFSET 0.23067378950000017 -0.016876459159999913 0.008481502700000004
                    }
                  }
                }
              }
              JOINT leftThumbProximal
              {
                OFFSET 0.25574326469999953 -0.12833321050000013 0.22385764169999997
                CHANNELS 3 Yrotation Xrotation Zrotation
                JOINT leftThumbIntermediate
                {
                  OFFSET 0.22804987480000094 -0.07138466829999968 0.273648441
                  CHANNELS 3 Yrotation Xrotation Zrotation
                  JOINT leftThumbDistal
                  {
                    OFFSET 0.13614857189999907 -0.033867001519998885 0.14238119169999996
                    CHANNELS 3 Yrotation Xrotation Zrotation
                    End Site
                    {
                      OFFSET 0.13614857189999907 -0.033867001519998885 0.14238119169999996
                    }
                  }
                }
              }
            }
          }
        }
      }
    }
  }
  JOINT rightUpperLeg
  {
    OFFSET -0.9749898906000001 -1.8495733739999998 0
    CHANNELS 3 Yrotation Xrotation Zrotation
    JOINT rightLowerLeg
    {
      OFFSET 0 -4.1566544686813165 0
      CHANNELS 3 Yrotation Xrotation Zrotation
      JOINT rightFoot
      {
        OFFSET 0.14539718599999998 -4.225553926 -0.3666210900000001
        CHANNELS 3 Yrotation Xrotation Zrotation
        JOINT rightToes
        {
          OFFSET 0.1706738473 -0.9584117400000015 1.0093348617
          CHANNELS 3 Yrotation Xrotation Zrotation
          End Site
          {
            OFFSET 0.1706738473 -0.9584117400000015 1.0093348617
          }
        }
      }
    }
  }
  JOINT leftUpperLeg
  {
    OFFSET 0.9749898906000001 -1.8495733739999998 0
    CHANNELS 3 Yrotation Xrotation Zrotation
    JOINT leftLowerLeg
    {
      OFFSET 0 -4.156653488267941 0
      CHANNELS 3 Yrotation Xrotation Zrotation
      JOINT leftFoot
      {
        OFFSET -0.14537357999999995 -4.225555399999999 -0.36661124279999996
        CHANNELS 3 Yrotation Xrotation Zrotation
        JOINT leftToes
        {
          OFFSET -0.17066467000000002 -0.9584157000000019 1.0093348617
          CHANNELS 3 Yrotation Xrotation Zrotation
          End Site
          {
            OFFSET -0.17066467000000002 -0.9584157000000019 1.0093348617
          }
        }
      }
    }
  }
}
MOTION
Frames: 4
Frame Time: 0.03333333333333333
0.05444258078932762 -0.3007638924877938 0.02757425606250763 1.5086643953462264 -0.8959905312015014 -5.402559187615949 -1.158784438323722 1.296897393926101 3.0057648213263115 1.2666114727989695 1.339045583248078 11.808539876936303 -0.3326690323299457 1.0447751389085906 -2.165939356709926 0.43950268216422 1.5774491832970126 -8.13468443172564 0 0 0 0 0 0 0 0 0 3.4051704144573556 4.498139627980548 5.69566437975661 1.3394163370608507 -1.6742222016059651 67.30133222515694 17.735260691726825 0.035179738634143407 -0.22546738253679025 -9.163840620017698 -11.056648216170666 12.027344199728866 -15.602424658259586 5.214461565667783 35.64272957246358 -3.4992896869032033 1.0430401963494915 45.609296026189284 -0.033241602655582174 -0.8197364701029618 22.123066084480392 -11.331863774844289 2.4322508989350657 26.55426040932289 -3.433834155645776 1.5389341247390271 40.16022180597946 0.24967232653072727 -0.1871626305792148 17.812876359639088 -8.623130249213567 0.8982413544348838 15.80724076825564 -3.4932459344169686 0.7745407885818515 33.390588851817434 -1.5230961057327357 0.18753626526860848 15.913372193460125 -4.588710018767205 0.3364893360988476 7.8770618948795095 -2.53493959039556 0.33653421335014533 20.583264908612176 -0.049445246504287464 -0.21471174128707057 13.845805649093753 -0.4730793441613683 18.64878946440693 -11.237337794628512 -31.738199635372794 0.8893888323541286 3.1663973687240214 -7.698771789832483 1.6458698193626538 1.1069113301130058 -13.854268693872086 3.4969791517335396 -5.725296428276246 2.7835502666124357 3.370367292751858 -83.51892457370523 -14.505515298880319 0.023557729987626147 0.18539889788115846 4.035407811090034 -27.54271099797417 -11.331080377510462 15.842061501933891 5.385665297507178 -35.62556626290613 3.46191299753477 1.3046867774397781 -45.6049179966645 2.5732494498457363 0.5107453117823735 -20.536103065122838 11.348365739585633 2.440547473722547 -26.553780342252093 3.4098066599744663 1.5344431543206576 -40.160069702513205 1.5898211863675535 0.5033833602149278 -19.35105754712496 8.564246496419615 0.8816031410873455 -15.807288306925729 3.586451825951393 0.7958290188392637 -33.3914559846441 1.3339447014736896 0.15408383727572278 -12.27868483186097 4.564990975883604 0.3332364029499797 -7.87668332684883 2.574994190554603 0.3426720198699044 -20.583717003028625 0.6785077595527097 0.0229386056384126 -10.178994783666523 0.36209621838014305 18.625573727683328 11.179673465470586 31.85290613436953 0.9234788910547215 -3.1230252760288644 8.671560127877457 1.8057943487476746 -0.2995418584918292 -4.832714723723339 -1.607712528593321 10.752341638257661 -5.161667556234091 12.398062097697823 2.222648860256582 0.9236253198932393 -9.850533151511573 -7.926897251675645 -0.000002108709958828765 -0.5486617398160071 7.134879613396326e-7 11.672764460594967 -19.19642622312353 11.913081251294644 10.264331780323774 21.734873607048126 6.051726226758758 3.238882030133265 -1.4958765598249992 -8.908666270310816 0.000012646727296522205 -0.4419699960686211 0.000002265663506572723
0.05743659660220146 -0.30107669766357503 0.028243206441402435 1.6024959651249457 -0.9435915586654029 -5.397657882398149 -1.1248745232742872 1.3289705647035046 3.0025329474180533 1.2888457048487818 1.3458633430233384 11.806261032287207 -0.33874445573993955 1.0703087078224622 -2.188738718331229 0.393391930732107 1.7510526137885454 -8.152971151865572 0 0 0 0 0 0 0 0 0 3.481993668369501 4.48851876473632 5.747889788104853 0.414531226909403 -2.341534504938958 67.31902922015742 17.57153177334094 0.03453658015521944 -0.22345407919850027 -9.116738240811518 -10.775173945190653 11.94032855484038 -15.619626361160112 5.216516140435463 35.58888091838047 -3.4980420152192773 1.0420690815091698 45.59132064720749 -0.02921306329216801 -0.8193234682151306 22.0836232498673 -11.339504369249154 2.432649970810434 26.516494993824047 -3.433599755962556 1.5386870816192273 40.15638949019352 0.2511871579095641 -0.18726142872574267 17.796021581460316 -8.61868308256156 0.8962447733998896 15.784102895289015 -3.4935703996689127 0.7747337056964042 33.39486863823855 -1.521219229448769 0.18700125315959776 15.89097750084121 -4.5771958676327555 0.3348957135554388 7.878126787274751 -2.53493959039556 0.3365324257307377 20.583247722263238 -0.0494438157569102 -0.21471095420896394 13.845808124308233 -0.49034684130137973 18.577698011365847 -11.251559119983016 -31.737467976887157 0.8837428983944549 3.1683255256932514 -7.710695170682997 1.6592413139800075 1.1047014040426488 -13.860928253309268 3.4960673316745554 -5.729097092980446 2.700247248381656 3.302919665973781 -83.48655816083505 -14.430750753918906 0.023311799801241415 0.18445020247367416 3.9073320290758016 -27.57182919071518 -11.359857473734989 15.848452490985059 5.390690616144152 -35.71731441577796 3.468159714600257 1.3104007580305639 -45.701462274398274 2.5782284195844216 0.5132843759059205 -20.59944710611095 11.352968758131611 2.449964206906097 -26.6454732166552 3.4156226913114764 1.5405892289718515 -40.257044799661095 1.5947533031419783 0.5057751397499397 -19.414404739147674 8.57130090176764 0.8865654373601861 -15.899466278360588 3.593576605433007 0.8003089903029961 -33.488194559874586 1.339278753839325 0.15543223092633165 -12.34204994435701 4.573068999278414 0.33432610341762775 -7.969011209387611 2.5829552309437767 0.34569672766908427 -20.68032595250764 0.6840630570145507 0.02369471231122266 -10.242380375434356 0.38495085692232905 18.629388437676607 11.193322172521178 31.87428440790122 0.9305039129894195 -3.118453954170542 8.69343775774838 1.8109690867526993 -0.29452039778064903 -4.878337816591414 -1.5750610217814967 10.731289416738248 -5.147618756308293 12.454688439723071 2.2150186180710714 0.8630441847417509 -9.894646906431799 -7.899322994176841 -0.0000016618107481298077 -0.549289398978246 4.940768385016692e-7 11.674986715428348 -19.174179273516426 11.878363044236622 10.186835110651797 21.77452974721434 6.051027771015936 3.231519275680148 -1.5240502013402517 -8.8925303568211 -0.000025478399936793287 -0.41864736375248307 0.000005319883467111874
0.06468644738197327 -0.30164127285888753 0.029772574082016945 1.833183304897331 -1.0507381440128072 -5.384308190099548 -1.027449633412961 1.3931943877193533 3.0061793864332382 1.352628129279602 1.3580362077423953 11.807315357305185 -0.3530672782036446 1.1169850130311059 -2.234181114749212 0.29682780507015266 2.108178762828928 -8.273229182416385 0 0 0 0 0 0 0 0 0 3.6113641839820088 4.4681923887144865 5.7780985190866 -1.6116542813109263 -4.398098316021255 67.26481335093897 16.331517101720202 0.0298666076590952 -0.20812422114179543 -9.89337093023223 -7.684869270500266 12.14076529408563 -15.705818855772561 5.226196694577374 35.318889195216585 -3.491791295686921 1.037146052622265 45.50116224275283 -0.009132387881575886 -0.8171517268522074 21.886029022436183 -11.377772436878008 2.4344240048165378 26.327267998233403 -3.4324388414777185 1.5374617951423064 40.137094107248146 0.2587626489262961 -0.18772767167427523 17.711656132528724 -8.596393110896422 0.8862729315205861 15.668202772372354 -3.4951565199655734 0.7757082174292762 33.41632908468697 -1.5118222606439529 0.18432520567730332 15.778731319470143 -4.519485943699468 0.3269098886084469 7.883621129434207 -2.5349376712515252 0.3365326658587178 20.583252517970465 -0.049439290059495024 -0.2147071922424208 13.845808953279843 -0.5755582210428528 18.22134846218003 -11.322201080753338 -31.733783305821383 0.8553956824318467 3.177883549312531 -7.770500582428592 1.7262217688169512 1.0937167986166887 -13.893408188052428 3.4934313127697547 -5.696608330798517 2.7616943598801114 3.164767386066218 -83.46008968520292 -14.290367901381735 0.022875099548290617 0.1826745247361084 3.201636990103827 -28.287248475719583 -11.392069427494707 15.884807073995603 5.419641035946413 -36.244184401779016 3.5038351470370395 1.343396325069709 -46.25574531555011 2.6067265519070832 0.5279622580034602 -20.963127525330297 11.378631581754131 2.504046019052353 -27.172019820798692 3.448760568659472 1.576108250927311 -40.81372819763746 1.622990600057879 0.5195436447482734 -19.778098758234297 8.611421218854353 0.9151564082110687 -16.428591005838314 3.6343832384083234 0.8262857497064865 -34.043542714302184 1.3699223766998676 0.16332946761148004 -12.705940581385791 4.619435433298251 0.34098730772024816 -8.498941486295445 2.628562374262629 0.36320988133676985 -21.23516705727465 0.7159372239678539 0.0282041233933299 -10.606298727513424 0.5161857156748617 18.651146715813415 11.271696023914005 31.99698072202339 0.9708957423181378 -3.0922645641621958 8.819062009116852 1.840573990169235 -0.2654734775957292 -4.959914990318631 -1.5047285313636267 10.689042129310533 -5.11083676973151 12.57653681293832 2.187678810225701 0.6778699784266534 -9.993799725186973 -7.825371744005701 0.0000029642735974777494 -0.5430518188452799 2.2281395033982652e-7 11.672564897219784 -19.118903041495706 11.785744601738495 9.994107097819539 21.852445470771876 6.054707724302763 3.2249322911550533 -1.5808639739725603 -8.857515556401864 0.00000494376652089742 -0.37873866864076966 -0.0000027395118759167236
0.07311037182807922 -0.30202274258545003 0.031015440821647644 2.08956061943476 -1.1672192963661563 -5.3727179051188 -0.8832260257784634 1.4517435259060847 3.0224658428898774 1.4472335802641487 1.3709344085372934 11.8155035918749 -0.3778705431434528 1.1476045405793684 -2.2668515076561913 0.1804415164934482 2.441312722362963 -8.502881029010512 0 0 0 0 0 0 0 0 0 3.726367814788518 4.446498125803143 5.749909260596103 -3.6016651003273834 -7.413949951124485 67.09567310066946 13.84930896057982 0.02151857318448712 -0.17715246601758103 -12.223725818600569 -1.9740804284185012 12.172951310480876 -15.86045647606856 5.241356323811528 34.83513321270168 -3.480571240756284 1.0283672998484723 45.33970346255139 0.026838514711632032 -0.8131114745343757 21.532149520337967 -11.446365723418156 2.4368502735553594 25.988344087420558 -3.430377631320404 1.535256665591885 40.10251121487506 0.2723333155163429 -0.188513000919481 17.560547181200526 -8.55637549639149 0.8686055359767141 15.460625096169894 -3.497995982615721 0.7774633103711016 33.45469827611207 -1.494966746313462 0.17957126332157697 15.57771176258075 -4.416122500953272 0.3125968708761469 7.893404329237638 -2.53493959039556 0.33653421335014533 20.583252517970465 -0.04944317542241967 -0.21470978026195747 13.845815585052499 -0.7233446611804777 17.582506129841946 -11.445813720713758 -31.727229532459468 0.8046603543193186 3.1950032578758623 -7.877696771521786 1.8461462527372916 1.0740442797182224 -13.93037223058559 3.491045066622735 -5.6443818369938565 2.903800089238448 3.0285400986559154 -83.42623337224369 -14.133077152153247 0.022377302782963047 0.18072974970161482 2.270024957463373 -29.2839331903876 -11.39218557222682 15.932448687772622 5.458434442915692 -36.94015053686921 3.5504569102346033 1.3875076482178774 -46.987858323344255 2.6442265956011215 0.5476435681471775 -21.443479867816162 11.411288334447987 2.5756239363042344 -27.867599744924465 3.4920032840562314 1.6234970740117194 -41.54902417781921 1.6601549246598621 0.5380233485411394 -20.258470789976997 8.66376999759171 0.9534517542588472 -17.127491542688183 3.6878868848149366 0.8611821422185246 -34.777029107626326 1.410319727302007 0.17406609129311304 -13.186570724711272 4.680594108173805 0.35043859395882854 -9.198960339581989 2.688524238443413 0.38707019138105103 -21.96792203107059 0.7579682270062879 0.03442897797587804 -11.08696702831833 0.6895889145207668 18.67963456189154 11.375231593488898 32.15908931498287 1.0241577339605927 -3.0575233304212346 8.985004245449177 1.8796094543068689 -0.2270564686544431 -5.026074272468854 -1.4278771792044014 10.648584738615455 -5.097082702109666 12.693776607135439 2.147716348333392 0.4724582534534115 -10.091351602339728 -7.73676353364711 -0.000005515839383454342 -0.5300268773981471 -0.0000011577552688412237 11.666277219800591 -19.05609194371701 11.679313693616628 9.772368807939802 21.927118014091022 6.06092631213726 3.229131791258144 -1.6353435979738566 -8.818699398048148 -0.000001183474040299665 -0.34940790986340753 0.0000033240799716742746
